# xmcd CD database file
#
# Track frame offsets:
#	150
#	16245
#	34067
#
# Disc length: 707 seconds
#
# Revision: 0
# Processed by: cddbd v1.5.1PL0 Copyright (c) Steve Scherf et al.
# Submitted via: CDex 1.51
#
DISCID=1802c103
DTITLE=NANANINE - Stranger Paradise
DYEAR=1900
DGENRE=ロック (日本)
TTITLE0=Stranger Paradise
TTITLE1=Mono
TTITLE2=Raw Life
EXTD=
EXTT0=
EXTT1=
EXTT2=
PLAYORDER=
